<svg data-v-5f19e91b="" height="90" viewBox="0 0 321 90" width="321"
     xmlns="http://www.w3.org/2000/svg"><!----> <!----> <!---->
    <g data-v-5f19e91b="" fill="#9c27b0" id="41e9b5fe-bb66-d82e-5a37-e08a4e803806"
       transform="matrix(6.1224488604322,0,0,6.1224488604322,94.67549144036614,-6.428572442024176)">
        <path
            d="M1.22 9.93C0.83 10.04 0.59 10.47 0.73 10.89C1.18 12.29 2.49 13.30 4.03 13.30C5.95 13.30 7.52 11.75 7.52 9.83L7.52 4.27C7.52 3.84 7.17 3.50 6.75 3.50C6.31 3.50 5.96 3.84 5.96 4.27L5.96 9.83C5.96 10.88 5.10 11.75 4.03 11.75C3.18 11.75 2.45 11.19 2.20 10.42C2.07 10.01 1.64 9.79 1.22 9.93ZM17.88 9.25L17.88 4.27C17.88 3.84 17.54 3.50 17.11 3.50C16.67 3.50 16.32 3.84 16.32 4.27L16.32 9.25C16.32 10.63 15.22 11.75 13.83 11.75C12.46 11.75 11.34 10.63 11.34 9.25L11.34 4.27C11.34 3.84 10.98 3.50 10.56 3.50C10.12 3.50 9.79 3.84 9.79 4.27L9.79 9.25C9.79 11.48 11.58 13.30 13.83 13.30C16.07 13.30 17.88 11.48 17.88 9.25ZM21.52 13.30C21.52 13.30 21.52 13.30 21.52 13.30C21.52 13.30 21.52 13.30 21.52 13.30L23.17 13.30C25.87 13.30 28.06 11.10 28.06 8.39C28.06 5.70 25.87 3.50 23.17 3.50L21.52 3.50C21.52 3.50 21.52 3.50 21.52 3.50C21.52 3.50 21.52 3.50 21.52 3.50C21.08 3.50 20.75 3.84 20.75 4.27L20.75 12.53C20.75 12.95 21.08 13.30 21.52 13.30ZM22.30 5.05L23.17 5.05C25.02 5.05 26.50 6.55 26.50 8.39C26.50 10.25 25.02 11.73 23.17 11.75L22.30 11.75L22.30 5.05ZM36.55 3.75C36.22 3.50 35.74 3.57 35.48 3.92L33.08 7.20L30.69 3.92C30.45 3.57 29.97 3.50 29.62 3.75C29.27 4.00 29.20 4.48 29.47 4.82L32.31 8.75L32.31 12.53C32.31 12.96 32.68 13.30 33.08 13.30C33.52 13.30 33.85 12.96 33.85 12.53L33.85 8.75L36.72 4.82C36.96 4.48 36.89 4.00 36.55 3.75Z"></path>
    </g> <!---->
    <g data-v-5f19e91b="" fill="#9c27b0"
       id="e9b99a20-68f9-b339-4b36-3d9260fe753a"
       stroke="none"
       transform="matrix(0.6975122130625074,0,0,0.6975122130625074,-3.7543613659371715,-4.844774806545196)">
        <circle clip-rule="evenodd" cx="62.073" cy="22.074" fill-rule="evenodd" r="14.949"></circle>
        <path clip-rule="evenodd" d="M47.115 24.657l14.954 47.296 14.954-47.296z" fill-rule="evenodd"></path>
        <circle clip-rule="evenodd" cx="62.073" cy="121.206" fill-rule="evenodd" r="14.949"></circle>
        <path clip-rule="evenodd" d="M62.069 71.327l-14.954 47.296h29.908z" fill-rule="evenodd"></path>
        <circle clip-rule="evenodd" cx="103.768" cy="98.34" fill-rule="evenodd" r="14.949"></circle>
        <path clip-rule="evenodd" d="M61.888 71.249l31.587 38.247 16.246-25.11z" fill-rule="evenodd"></path>
        <g>
            <circle clip-rule="evenodd" cx="103.768" cy="44.699" fill-rule="evenodd" r="14.949"></circle>
            <path clip-rule="evenodd" d="M93.475 33.543L61.888 71.791l47.833-13.136z" fill-rule="evenodd"></path>
        </g>
        <g>
            <circle clip-rule="evenodd" cx="20.552" cy="44.7" fill-rule="evenodd" r="14.949"></circle>
            <path clip-rule="evenodd" d="M30.846 33.543L14.6 58.655l47.833 13.136z" fill-rule="evenodd"></path>
        </g>
        <g>
            <circle clip-rule="evenodd" cx="20.552" cy="98.34" fill-rule="evenodd" r="14.949"></circle>
            <path clip-rule="evenodd" d="M14.6 84.386l16.246 25.11 31.587-38.247z" fill-rule="evenodd"></path>
        </g>
    </g>
</svg>
